  0
SECTION
  2
HEADER
  9
$ACADVER
  1
AC1009
  9
$INSBASE
 10
0.0
 20
0.0
 30
0.0
  9
$EXTMIN
 10
-36729.296679412277
 20
-25015.027991483679
 30
0.0
  9
$EXTMAX
 10
557.5599548937023
 20
396.56378355159768
 30
0.0
  9
$LIMMIN
 10
0.0
 20
0.0
  9
$LIMMAX
 10
420.0
 20
297.0
  9
$ORTHOMODE
 70
     0
  9
$REGENMODE
 70
     1
  9
$FILLMODE
 70
     1
  9
$QTEXTMODE
 70
     0
  9
$MIRRTEXT
 70
     0
  9
$DRAGMODE
 70
     2
  9
$LTSCALE
 40
1.0
  9
$OSMODE
 70
    37
  9
$ATTMODE
 70
     1
  9
$TEXTSIZE
 40
2.5
  9
$TRACEWID
 40
1.0
  9
$TEXTSTYLE
  7
STANDARD
  9
$CLAYER
  8
AUXILIAR
  9
$CELTYPE
  6
BYLAYER
  9
$CECOLOR
 62
   256
  9
$DIMSCALE
 40
1.0
  9
$DIMASZ
 40
2.5
  9
$DIMEXO
 40
0.625
  9
$DIMDLI
 40
3.75
  9
$DIMRND
 40
0.0
  9
$DIMDLE
 40
0.0
  9
$DIMEXE
 40
1.25
  9
$DIMTP
 40
0.0
  9
$DIMTM
 40
0.0
  9
$DIMTXT
 40
2.5
  9
$DIMCEN
 40
2.5
  9
$DIMTSZ
 40
0.0
  9
$DIMTOL
 70
     0
  9
$DIMLIM
 70
     0
  9
$DIMTIH
 70
     0
  9
$DIMTOH
 70
     0
  9
$DIMSE1
 70
     0
  9
$DIMSE2
 70
     0
  9
$DIMTAD
 70
     1
  9
$DIMZIN
 70
     8
  9
$DIMBLK
  1

  9
$DIMASO
 70
     1
  9
$DIMSHO
 70
     1
  9
$DIMPOST
  1

  9
$DIMAPOST
  1

  9
$DIMALT
 70
     0
  9
$DIMALTD
 70
     3
  9
$DIMALTF
 40
0.03937007874016
  9
$DIMLFAC
 40
1.0
  9
$DIMTOFL
 70
     1
  9
$DIMTVP
 40
0.0
  9
$DIMTIX
 70
     0
  9
$DIMSOXD
 70
     0
  9
$DIMSAH
 70
     0
  9
$DIMBLK1
  1

  9
$DIMBLK2
  1

  9
$DIMSTYLE
  2
ISO-25
  9
$DIMCLRD
 70
     0
  9
$DIMCLRE
 70
     0
  9
$DIMCLRT
 70
     0
  9
$DIMTFAC
 40
1.0
  9
$DIMGAP
 40
0.625
  9
$LUNITS
 70
     2
  9
$LUPREC
 70
     4
  9
$SKETCHINC
 40
1.0
  9
$FILLETRAD
 40
0.0
  9
$AUNITS
 70
     0
  9
$AUPREC
 70
     0
  9
$MENU
  1
.
  9
$ELEVATION
 40
0.0
  9
$PELEVATION
 40
0.0
  9
$THICKNESS
 40
0.0
  9
$LIMCHECK
 70
     0
  9
$BLIPMODE
 70
     0
  9
$CHAMFERA
 40
0.0
  9
$CHAMFERB
 40
0.0
  9
$SKPOLY
 70
     0
  9
$TDCREATE
 40
2457140.7151639941
  9
$TDUPDATE
 40
2457141.5250864471
  9
$TDINDWG
 40
0.8099271412
  9
$TDUSRTIMER
 40
0.8099270833
  9
$USRTIMER
 70
     1
  9
$ANGBASE
 50
0.0
  9
$ANGDIR
 70
     0
  9
$PDMODE
 70
     0
  9
$PDSIZE
 40
0.0
  9
$PLINEWID
 40
0.0
  9
$COORDS
 70
     1
  9
$SPLFRAME
 70
     0
  9
$SPLINETYPE
 70
     6
  9
$SPLINESEGS
 70
     8
  9
$ATTDIA
 70
     1
  9
$ATTREQ
 70
     1
  9
$HANDLING
 70
     1
  9
$HANDSEED
  5
466
  9
$SURFTAB1
 70
     6
  9
$SURFTAB2
 70
     6
  9
$SURFTYPE
 70
     6
  9
$SURFU
 70
     6
  9
$SURFV
 70
     6
  9
$UCSNAME
  2

  9
$UCSORG
 10
0.0
 20
0.0
 30
0.0
  9
$UCSXDIR
 10
1.0
 20
0.0
 30
0.0
  9
$UCSYDIR
 10
0.0
 20
1.0
 30
0.0
  9
$PUCSNAME
  2

  9
$PUCSORG
 10
0.0
 20
0.0
 30
0.0
  9
$PUCSXDIR
 10
1.0
 20
0.0
 30
0.0
  9
$PUCSYDIR
 10
0.0
 20
1.0
 30
0.0
  9
$USERI1
 70
     0
  9
$USERI2
 70
     0
  9
$USERI3
 70
     0
  9
$USERI4
 70
     0
  9
$USERI5
 70
     0
  9
$USERR1
 40
0.0
  9
$USERR2
 40
0.0
  9
$USERR3
 40
0.0
  9
$USERR4
 40
0.0
  9
$USERR5
 40
0.0
  9
$WORLDVIEW
 70
     1
  9
$SHADEDGE
 70
     3
  9
$SHADEDIF
 70
    70
  9
$TILEMODE
 70
     1
  9
$MAXACTVP
 70
    64
  9
$PLIMCHECK
 70
     0
  9
$PEXTMIN
 10
0.0
 20
0.0
 30
0.0
  9
$PEXTMAX
 10
0.0
 20
0.0
 30
0.0
  9
$PLIMMIN
 10
0.0
 20
0.0
  9
$PLIMMAX
 10
12.0
 20
9.0
  9
$UNITMODE
 70
     0
  9
$VISRETAIN
 70
     1
  9
$PLINEGEN
 70
     0
  9
$PSLTSCALE
 70
     1
  0
ENDSEC
  0
SECTION
  2
TABLES
  0
TABLE
  2
VPORT
 70
     1
  0
VPORT
  2
*ACTIVE
 70
     0
 10
0.0
 20
0.0
 11
1.0
 21
1.0
 12
282.73121953767549
 22
218.75148343063131
 13
0.0
 23
0.0
 14
10.0
 24
10.0
 15
10.0
 25
10.0
 16
0.0
 26
0.0
 36
1.0
 17
0.0
 27
0.0
 37
0.0
 40
647.40926135201028
 41
2.4764705882352942
 42
50.0
 43
0.0
 44
0.0
 50
0.0
 51
0.0
 71
     0
 72
  1000
 73
     1
 74
     3
 75
     0
 76
     1
 77
     0
 78
     0
  0
ENDTAB
  0
TABLE
  2
LTYPE
 70
     2
  0
LTYPE
  2
CONTINUOUS
 70
     0
  3
Solid line
 72
    65
 73
     0
 40
0.0
  0
ENDTAB
  0
TABLE
  2
LAYER
 70
     4
  0
LAYER
  2
0
 70
     0
 62
     7
  6
CONTINUOUS
  0
LAYER
  2
02___PRT_ALL_AXES
 70
     0
 62
     7
  6
CONTINUOUS
  0
LAYER
  2
DEFPOINTS
 70
     0
 62
     7
  6
CONTINUOUS
  0
LAYER
  2
AUXILIAR
 70
     0
 62
     1
  6
CONTINUOUS
  0
ENDTAB
  0
TABLE
  2
STYLE
 70
     2
  0
STYLE
  2
STANDARD
 70
     0
 40
0.0
 41
1.0
 50
0.0
 71
     0
 42
2.5
  3
txt
  4

  0
STYLE
  2
ANOTATIVO
 70
     0
 40
0.0
 41
1.0
 50
0.0
 71
     0
 42
2.5
  3
txt
  4

  0
ENDTAB
  0
TABLE
  2
VIEW
 70
     0
  0
ENDTAB
  0
TABLE
  2
UCS
 70
     0
  0
ENDTAB
  0
TABLE
  2
APPID
 70
    11
  0
APPID
  2
ACAD
 70
     0
  0
APPID
  2
ACAD_PSEXT
 70
     0
  0
APPID
  2
ACADANNOPO
 70
     0
  0
APPID
  2
ACADANNOTATIVE
 70
     0
  0
APPID
  2
ACAD_DSTYLE_DIMJAG
 70
     0
  0
APPID
  2
ACAD_DSTYLE_DIMTALN
 70
     0
  0
APPID
  2
ACAD_MLEADERVER
 70
     0
  0
APPID
  2
ACAD_NAV_VCDISPLAY
 70
     0
  0
APPID
  2
ACAD_EXEMPT_FROM_CAD_STANDARDS
 70
     0
  0
APPID
  2
ACAECLAYERSTANDARD
 70
     0
  0
APPID
  2
ACCMTRANSPARENCY
 70
     0
  0
ENDTAB
  0
TABLE
  2
DIMSTYLE
 70
     4
  0
DIMSTYLE
  2
STANDARD
 70
     0
  3

  4

  5

  6

  7

 40
1.0
 41
0.18
 42
0.0625
 43
0.38
 44
0.18
 45
0.0
 46
0.0
 47
0.0
 48
0.0
140
0.18
141
0.09
142
0.0
143
25.399999999999999
144
1.0
145
0.0
146
1.0
147
0.09
 71
     0
 72
     0
 73
     1
 74
     1
 75
     0
 76
     0
 77
     0
 78
     0
170
     0
171
     2
172
     0
173
     0
174
     0
175
     0
176
     0
177
     0
178
     0
  0
DIMSTYLE
  2
ANOTATIVO
 70
     0
  3

  4

  5

  6

  7

 40
0.0
 41
2.5
 42
0.625
 43
3.75
 44
1.25
 45
0.0
 46
0.0
 47
0.0
 48
0.0
140
2.5
141
2.5
142
0.0
143
0.03937007874016
144
1.0
145
0.0
146
1.0
147
0.625
 71
     0
 72
     0
 73
     0
 74
     0
 75
     0
 76
     0
 77
     1
 78
     8
170
     0
171
     3
172
     1
173
     0
174
     0
175
     0
176
     0
177
     0
178
     0
  0
DIMSTYLE
  2
ISO-25
 70
     0
  3

  4

  5

  6

  7

 40
1.0
 41
2.5
 42
0.625
 43
3.75
 44
1.25
 45
0.0
 46
0.0
 47
0.0
 48
0.0
140
2.5
141
2.5
142
0.0
143
0.03937007874016
144
1.0
145
0.0
146
1.0
147
0.625
 71
     0
 72
     0
 73
     0
 74
     0
 75
     0
 76
     0
 77
     1
 78
     8
170
     0
171
     3
172
     1
173
     0
174
     0
175
     0
176
     0
177
     0
178
     0
  0
ENDTAB
  0
ENDSEC
  0
SECTION
  2
BLOCKS
  0
BLOCK
  8
0
  2
$MODEL_SPACE
 70
     0
 10
0.0
 20
0.0
 30
0.0
  3
$MODEL_SPACE
  1

  0
ENDBLK
  5
21
  8
0
  0
BLOCK
 67
     1
  8
0
  2
$PAPER_SPACE
 70
     0
 10
0.0
 20
0.0
 30
0.0
  3
$PAPER_SPACE
  1

  0
ENDBLK
  5
D5
 67
     1
  8
0
  0
BLOCK
  8
0
  2
*D3
 70
     1
 10
0.0
 20
0.0
 30
0.0
  3
*D3
  1

  0
LINE
  5
2E3
  8
0
 62
     0
 10
369.8705700030452
 20
375.82386136580573
 30
0.0
 11
369.8705700030452
 21
383.66736053036692
 31
0.0
  0
LINE
  5
2E4
  8
0
 62
     0
 10
376.7519001777452
 20
375.82386136580573
 30
0.0
 11
376.7519001777452
 21
383.66736053036692
 31
0.0
  0
LINE
  5
2E5
  8
0
 62
     0
 10
372.3705700030452
 20
382.41736053036681
 30
0.0
 11
374.2519001777452
 21
382.41736053036681
 31
0.0
  0
LINE
  5
2E6
  8
0
 62
     0
 10
376.7519001777452
 20
382.41736053036681
 30
0.0
 11
387.01451955018717
 21
382.41736053036681
 31
0.0
  0
SOLID
  5
2E7
  8
0
 62
     0
 10
372.3705700030452
 20
382.83402719703349
 30
0.0
 11
372.3705700030452
 21
382.00069386370018
 31
0.0
 12
369.8705700030452
 22
382.41736053036681
 32
0.0
 13
369.8705700030452
 23
382.41736053036681
 33
0.0
  0
SOLID
  5
2E8
  8
0
 62
     0
 10
374.2519001777452
 20
382.83402719703349
 30
0.0
 11
374.2519001777452
 21
382.00069386370018
 31
0.0
 12
376.7519001777452
 22
382.41736053036681
 32
0.0
 13
376.7519001777452
 23
382.41736053036681
 33
0.0
  0
INSERT
  5
2E9
  8
AUXILIAR
  2
*U8
 10
0.0
 20
0.0
 30
0.0
  0
POINT
  5
2EA
  8
DEFPOINTS
 62
     0
 10
369.8705700030452
 20
375.19886136580573
 30
0.0
  0
POINT
  5
2EB
  8
DEFPOINTS
 62
     0
 10
376.7519001777452
 20
375.19886136580573
 30
0.0
  0
POINT
  5
2EC
  8
DEFPOINTS
 62
     0
 10
376.7519001777452
 20
382.41736053036681
 30
0.0
  0
ENDBLK
  5
2D7
  8
0
  0
BLOCK
  8
0
  2
*D4
 70
     1
 10
0.0
 20
0.0
 30
0.0
  3
*D4
  1

  0
LINE
  5
2FD
  8
0
 62
     0
 10
369.8705700030452
 20
375.82386136580573
 30
0.0
 11
369.8705700030452
 21
382.10161118622318
 31
0.0
  0
LINE
  5
2FE
  8
0
 62
     0
 10
376.7519001777452
 20
375.82386136580573
 30
0.0
 11
376.7519001777452
 21
382.10161118622318
 31
0.0
  0
LINE
  5
2FF
  8
0
 62
     0
 10
372.3705700030452
 20
380.85161118622318
 30
0.0
 11
374.2519001777452
 21
380.85161118622318
 31
0.0
  0
LINE
  5
300
  8
0
 62
     0
 10
376.7519001777452
 20
380.85161118622318
 30
0.0
 11
387.01451955018717
 21
380.85161118622318
 31
0.0
  0
SOLID
  5
301
  8
0
 62
     0
 10
372.3705700030452
 20
381.26827785288992
 30
0.0
 11
372.3705700030452
 21
380.4349445195565
 31
0.0
 12
369.8705700030452
 22
380.85161118622318
 32
0.0
 13
369.8705700030452
 23
380.85161118622318
 33
0.0
  0
SOLID
  5
302
  8
0
 62
     0
 10
374.2519001777452
 20
381.26827785288992
 30
0.0
 11
374.2519001777452
 21
380.4349445195565
 31
0.0
 12
376.7519001777452
 22
380.85161118622318
 32
0.0
 13
376.7519001777452
 23
380.85161118622318
 33
0.0
  0
INSERT
  5
303
  8
AUXILIAR
  2
*U9
 10
0.0
 20
0.0
 30
0.0
  0
POINT
  5
304
  8
DEFPOINTS
 62
     0
 10
369.8705700030452
 20
375.19886136580573
 30
0.0
  0
POINT
  5
305
  8
DEFPOINTS
 62
     0
 10
376.7519001777452
 20
375.19886136580573
 30
0.0
  0
POINT
  5
306
  8
DEFPOINTS
 62
     0
 10
376.7519001777452
 20
380.85161118622318
 30
0.0
  0
ENDBLK
  5
2F1
  8
0
  0
BLOCK
  8
0
  2
*D6
 70
     1
 10
0.0
 20
0.0
 30
0.0
  3
*D6
  1

  0
LINE
  5
3B8
  8
AUXILIAR
 62
     0
 10
133.74035504938229
 20
265.25104094741801
 30
0.0
 11
133.74035504938229
 21
229.33443345137329
 31
0.0
  0
LINE
  5
3B9
  8
AUXILIAR
 62
     0
 10
495.80624137131372
 20
265.25104094741801
 30
0.0
 11
495.80624137131372
 21
229.33443345137329
 31
0.0
  0
LINE
  5
3BA
  8
AUXILIAR
 62
     0
 10
136.24035504938229
 20
230.5844334513734
 30
0.0
 11
493.30624137131372
 21
230.5844334513734
 31
0.0
  0
SOLID
  5
3BB
  8
AUXILIAR
 62
     0
 10
136.24035504938229
 20
231.00110011804
 30
0.0
 11
136.24035504938229
 21
230.16776678470671
 31
0.0
 12
133.74035504938229
 22
230.5844334513734
 32
0.0
 13
133.74035504938229
 23
230.5844334513734
 33
0.0
  0
SOLID
  5
3BC
  8
AUXILIAR
 62
     0
 10
493.30624137131372
 20
231.00110011804
 30
0.0
 11
493.30624137131372
 21
230.16776678470671
 31
0.0
 12
495.80624137131372
 22
230.5844334513734
 32
0.0
 13
495.80624137131372
 23
230.5844334513734
 33
0.0
  0
INSERT
  5
3BD
  8
AUXILIAR
  2
*U10
 10
0.0
 20
0.0
 30
0.0
  0
POINT
  5
3BE
  8
DEFPOINTS
 62
     0
 10
133.74035504938229
 20
265.87604094741801
 30
0.0
  0
POINT
  5
3BF
  8
DEFPOINTS
 62
     0
 10
495.80624137131372
 20
265.87604094741801
 30
0.0
  0
POINT
  5
3C0
  8
DEFPOINTS
 62
     0
 10
495.80624137131372
 20
230.5844334513734
 30
0.0
  0
ENDBLK
  5
3AD
  8
0
  0
BLOCK
  8
0
  2
*D7
 70
     1
 10
0.0
 20
0.0
 30
0.0
  3
*D7
  1

  0
LINE
  5
3D0
  8
AUXILIAR
 62
     0
 10
491.43124137133321
 20
396.56378355159768
 30
0.0
 11
557.5599548937023
 21
396.56378355159768
 31
0.0
  0
LINE
  5
3D1
  8
AUXILIAR
 62
     0
 10
491.43124137133321
 20
248.5637835501575
 30
0.0
 11
557.55995489370207
 21
248.5637835501575
 31
0.0
  0
LINE
  5
3D2
  8
AUXILIAR
 62
     0
 10
556.3099548937023
 20
394.06378355159768
 30
0.0
 11
556.30995489370218
 21
251.0637835501575
 31
0.0
  0
SOLID
  5
3D3
  8
AUXILIAR
 62
     0
 10
555.89328822703555
 20
394.06378355159768
 30
0.0
 11
556.72662156036893
 21
394.06378355159768
 31
0.0
 12
556.3099548937023
 22
396.56378355159768
 32
0.0
 13
556.3099548937023
 23
396.56378355159768
 33
0.0
  0
SOLID
  5
3D4
  8
AUXILIAR
 62
     0
 10
555.89328822703555
 20
251.0637835501575
 30
0.0
 11
556.7266215603687
 21
251.0637835501575
 31
0.0
 12
556.30995489370218
 22
248.5637835501575
 32
0.0
 13
556.30995489370218
 23
248.5637835501575
 33
0.0
  0
INSERT
  5
3D5
  8
AUXILIAR
  2
*U11
 10
0.0
 20
0.0
 30
0.0
  0
POINT
  5
3D6
  8
DEFPOINTS
 62
     0
 10
490.80624137133327
 20
396.56378355159768
 30
0.0
  0
POINT
  5
3D7
  8
DEFPOINTS
 62
     0
 10
490.80624137133327
 20
248.5637835501575
 30
0.0
  0
POINT
  5
3D8
  8
DEFPOINTS
 62
     0
 10
556.30995489370218
 20
248.5637835501575
 30
0.0
  0
ENDBLK
  5
3C5
  8
0
  0
BLOCK
  8
0
  2
*U8
 70
     1
 10
0.0
 20
0.0
 30
0.0
  3
*U8
  1

  0
TEXT
  5
43C
  8
0
 62
     0
 10
379.74559049152418
 20
383.53690350444612
 30
0.0
 40
2.5
  1
6,88
  0
ENDBLK
  5
43E
  8
0
  0
BLOCK
  8
0
  2
*U9
 70
     1
 10
0.0
 20
0.0
 30
0.0
  3
*U9
  1

  0
TEXT
  5
440
  8
0
 62
     0
 10
379.74559049152418
 20
381.97115416030232
 30
0.0
 40
2.5
  1
6,88
  0
ENDBLK
  5
442
  8
0
  0
BLOCK
  8
0
  2
*U10
 70
     1
 10
0.0
 20
0.0
 30
0.0
  3
*U10
  1

  0
TEXT
  5
456
  8
AUXILIAR
 62
     0
 10
309.4382027123944
 20
231.70397642545251
 30
0.0
 40
2.5
  1
362,07
  0
ENDBLK
  5
458
  8
0
  0
BLOCK
  8
0
  2
*U11
 70
     1
 10
0.0
 20
0.0
 30
0.0
  3
*U11
  1

  0
TEXT
  5
45A
  8
AUXILIAR
 62
     0
 10
555.64232187869516
 20
319.53683948539327
 30
0.0
 40
2.5
  1
148
 50
90.0
  0
ENDBLK
  5
45C
  8
0
  0
ENDSEC
  0
SECTION
  2
ENTITIES
  0
LINE
  5
296
  8
0
  6
CONTINUOUS
 62
     7
 10
133.74035504938229
 20
265.87604094741801
 30
0.0
 11
133.74035504938229
 21
351.0373125879587
 31
0.0
  0
CIRCLE
  5
29D
  8
02___PRT_ALL_AXES
  6
CONTINUOUS
 62
     7
 10
151.13324826962159
 20
278.45667676653738
 30
0.0
 40
2.5000000012599992
  0
CIRCLE
  5
29E
  8
02___PRT_ALL_AXES
  6
CONTINUOUS
 62
     7
 10
171.13324826954201
 20
278.45667676653738
 30
0.0
 40
2.5000000012599992
  0
CIRCLE
  5
29F
  8
02___PRT_ALL_AXES
  6
CONTINUOUS
 62
     7
 10
191.1332482694624
 20
258.45667676661827
 30
0.0
 40
2.5000000012599992
  0
CIRCLE
  5
2A0
  8
02___PRT_ALL_AXES
  6
CONTINUOUS
 62
     7
 10
191.1332482694624
 20
278.45667676653738
 30
0.0
 40
2.5000000012599992
  0
CIRCLE
  5
2A1
  8
02___PRT_ALL_AXES
  6
CONTINUOUS
 62
     7
 10
211.1332482693829
 20
258.45667676661827
 30
0.0
 40
2.5000000012599992
  0
CIRCLE
  5
2A2
  8
02___PRT_ALL_AXES
  6
CONTINUOUS
 62
     7
 10
211.1332482693829
 20
278.45667676653738
 30
0.0
 40
2.5000000012599992
  0
CIRCLE
  5
2A3
  8
02___PRT_ALL_AXES
  6
CONTINUOUS
 62
     7
 10
151.13324826962159
 20
298.45667676899762
 30
0.0
 40
2.5000000012599992
  0
CIRCLE
  5
2A4
  8
02___PRT_ALL_AXES
  6
CONTINUOUS
 62
     7
 10
171.13324826954201
 20
298.45667676899762
 30
0.0
 40
2.5000000012599992
  0
CIRCLE
  5
2A5
  8
02___PRT_ALL_AXES
  6
CONTINUOUS
 62
     7
 10
191.1332482694624
 20
298.45667676899762
 30
0.0
 40
2.5000000012599992
  0
CIRCLE
  5
2A6
  8
02___PRT_ALL_AXES
  6
CONTINUOUS
 62
     7
 10
211.1332482693829
 20
298.45667676899762
 30
0.0
 40
2.5000000012599992
  0
CIRCLE
  5
2A7
  8
02___PRT_ALL_AXES
  6
CONTINUOUS
 62
     7
 10
158.28324826728249
 20
261.65667676741759
 30
0.0
 40
1.4999999997399991
  0
CIRCLE
  5
2AB
  8
02___PRT_ALL_AXES
  6
CONTINUOUS
 62
     7
 10
151.13324826962159
 20
338.4566767688375
 30
0.0
 40
2.5000000012599992
  0
CIRCLE
  5
2AC
  8
02___PRT_ALL_AXES
  6
CONTINUOUS
 62
     7
 10
171.13324826954201
 20
338.4566767688375
 30
0.0
 40
2.5000000012599992
  0
CIRCLE
  5
2AD
  8
02___PRT_ALL_AXES
  6
CONTINUOUS
 62
     7
 10
191.1332482694624
 20
358.45667676875843
 30
0.0
 40
2.5000000012599992
  0
CIRCLE
  5
2AE
  8
02___PRT_ALL_AXES
  6
CONTINUOUS
 62
     7
 10
191.1332482694624
 20
338.4566767688375
 30
0.0
 40
2.5000000012599992
  0
CIRCLE
  5
2AF
  8
02___PRT_ALL_AXES
  6
CONTINUOUS
 62
     7
 10
211.1332482693829
 20
358.45667676875843
 30
0.0
 40
2.5000000012599992
  0
CIRCLE
  5
2B0
  8
02___PRT_ALL_AXES
  6
CONTINUOUS
 62
     7
 10
211.1332482693829
 20
338.4566767688375
 30
0.0
 40
2.5000000012599992
  0
CIRCLE
  5
2B1
  8
02___PRT_ALL_AXES
  6
CONTINUOUS
 62
     7
 10
151.13324826962159
 20
318.45667676891759
 30
0.0
 40
2.5000000012599992
  0
CIRCLE
  5
2B2
  8
02___PRT_ALL_AXES
  6
CONTINUOUS
 62
     7
 10
171.13324826954201
 20
318.45667676891759
 30
0.0
 40
2.5000000012599992
  0
CIRCLE
  5
2B3
  8
02___PRT_ALL_AXES
  6
CONTINUOUS
 62
     7
 10
191.1332482694624
 20
318.45667676891759
 30
0.0
 40
2.5000000012599992
  0
CIRCLE
  5
2B4
  8
02___PRT_ALL_AXES
  6
CONTINUOUS
 62
     7
 10
211.1332482693829
 20
318.45667676891759
 30
0.0
 40
2.5000000012599992
  0
CIRCLE
  5
2B5
  8
02___PRT_ALL_AXES
  6
CONTINUOUS
 62
     7
 10
158.28324826728249
 20
355.25667676795729
 30
0.0
 40
1.4999999997399991
  0
CIRCLE
  5
2B9
  8
02___PRT_ALL_AXES
  6
CONTINUOUS
 62
     7
 10
291.13324826906268
 20
278.45667676653738
 30
0.0
 40
2.5000000012599992
  0
CIRCLE
  5
2BA
  8
02___PRT_ALL_AXES
  6
CONTINUOUS
 62
     7
 10
271.13324826914231
 20
278.45667676653738
 30
0.0
 40
2.5000000012599992
  0
CIRCLE
  5
2BB
  8
02___PRT_ALL_AXES
  6
CONTINUOUS
 62
     7
 10
251.13324826922229
 20
258.45667676661827
 30
0.0
 40
2.5000000012599992
  0
CIRCLE
  5
2BC
  8
02___PRT_ALL_AXES
  6
CONTINUOUS
 62
     7
 10
251.13324826922229
 20
278.45667676653738
 30
0.0
 40
2.5000000012599992
  0
CIRCLE
  5
2BD
  8
02___PRT_ALL_AXES
  6
CONTINUOUS
 62
     7
 10
231.1332482693019
 20
258.45667676661827
 30
0.0
 40
2.5000000012599992
  0
CIRCLE
  5
2BE
  8
02___PRT_ALL_AXES
  6
CONTINUOUS
 62
     7
 10
231.1332482693019
 20
278.45667676653738
 30
0.0
 40
2.5000000012599992
  0
CIRCLE
  5
2BF
  8
02___PRT_ALL_AXES
  6
CONTINUOUS
 62
     7
 10
291.13324826906268
 20
298.45667676899762
 30
0.0
 40
2.5000000012599992
  0
CIRCLE
  5
2C0
  8
02___PRT_ALL_AXES
  6
CONTINUOUS
 62
     7
 10
271.13324826914231
 20
298.45667676899762
 30
0.0
 40
2.5000000012599992
  0
CIRCLE
  5
2C1
  8
02___PRT_ALL_AXES
  6
CONTINUOUS
 62
     7
 10
251.13324826922229
 20
298.45667676899762
 30
0.0
 40
2.5000000012599992
  0
CIRCLE
  5
2C2
  8
02___PRT_ALL_AXES
  6
CONTINUOUS
 62
     7
 10
231.1332482693019
 20
298.45667676899762
 30
0.0
 40
2.5000000012599992
  0
CIRCLE
  5
2C3
  8
02___PRT_ALL_AXES
  6
CONTINUOUS
 62
     7
 10
278.28324826934301
 20
261.65667676741759
 30
0.0
 40
1.4999999997399991
  0
CIRCLE
  5
2C7
  8
02___PRT_ALL_AXES
  6
CONTINUOUS
 62
     7
 10
291.13324826906268
 20
338.4566767688375
 30
0.0
 40
2.5000000012599992
  0
CIRCLE
  5
2C8
  8
02___PRT_ALL_AXES
  6
CONTINUOUS
 62
     7
 10
271.13324826914231
 20
338.4566767688375
 30
0.0
 40
2.5000000012599992
  0
CIRCLE
  5
2C9
  8
02___PRT_ALL_AXES
  6
CONTINUOUS
 62
     7
 10
251.13324826922229
 20
358.45667676875843
 30
0.0
 40
2.5000000012599992
  0
CIRCLE
  5
2CA
  8
02___PRT_ALL_AXES
  6
CONTINUOUS
 62
     7
 10
251.13324826922229
 20
338.4566767688375
 30
0.0
 40
2.5000000012599992
  0
CIRCLE
  5
2CB
  8
02___PRT_ALL_AXES
  6
CONTINUOUS
 62
     7
 10
231.1332482693019
 20
358.45667676875843
 30
0.0
 40
2.5000000012599992
  0
CIRCLE
  5
2CC
  8
02___PRT_ALL_AXES
  6
CONTINUOUS
 62
     7
 10
231.1332482693019
 20
338.4566767688375
 30
0.0
 40
2.5000000012599992
  0
CIRCLE
  5
2CD
  8
02___PRT_ALL_AXES
  6
CONTINUOUS
 62
     7
 10
291.13324826906268
 20
318.45667676891759
 30
0.0
 40
2.5000000012599992
  0
CIRCLE
  5
2CE
  8
02___PRT_ALL_AXES
  6
CONTINUOUS
 62
     7
 10
271.13324826914231
 20
318.45667676891759
 30
0.0
 40
2.5000000012599992
  0
CIRCLE
  5
2CF
  8
02___PRT_ALL_AXES
  6
CONTINUOUS
 62
     7
 10
251.13324826922229
 20
318.45667676891759
 30
0.0
 40
2.5000000012599992
  0
CIRCLE
  5
2D0
  8
02___PRT_ALL_AXES
  6
CONTINUOUS
 62
     7
 10
231.1332482693019
 20
318.45667676891759
 30
0.0
 40
2.5000000012599992
  0
CIRCLE
  5
2D1
  8
02___PRT_ALL_AXES
  6
CONTINUOUS
 62
     7
 10
278.28324826934301
 20
355.25667676795729
 30
0.0
 40
1.4999999997399991
  0
POLYLINE
  5
317
  8
0
  6
CONTINUOUS
 62
     7
 66
     1
 10
0.0
 20
0.0
 30
0.0
  0
VERTEX
  5
443
  8
0
  6
CONTINUOUS
 62
     7
 10
133.73908341160089
 20
265.87604094741812
 30
0.0
  0
VERTEX
  5
444
  8
0
  6
CONTINUOUS
 62
     7
 10
133.739083411601
 20
351.03731258795881
 30
0.0
 42
-0.3628826044135389
  0
VERTEX
  5
445
  8
0
  6
CONTINUOUS
 62
     7
 10
138.08667658608201
 20
355.99439887605928
 30
0.0
 42
0.3393364330166097
  0
VERTEX
  5
446
  8
0
  6
CONTINUOUS
 62
     7
 10
146.09552616107791
 20
364.0032484500918
 30
0.0
 42
-0.3763130389602254
  0
VERTEX
  5
447
  8
0
  6
CONTINUOUS
 62
     7
 10
151.05261244918159
 20
368.3495699877576
 30
0.0
  0
VERTEX
  5
448
  8
0
  6
CONTINUOUS
 62
     7
 10
291.21388408696163
 20
368.3495699877576
 30
0.0
 42
-0.3763130389602254
  0
VERTEX
  5
449
  8
0
  6
CONTINUOUS
 62
     7
 10
296.17097037760431
 20
364.00324844851809
 30
0.0
 42
0.3393364330166096
  0
VERTEX
  5
44A
  8
0
  6
CONTINUOUS
 62
     7
 10
304.1798199490965
 20
355.99439887606252
 30
0.0
 42
-0.3763130389602254
  0
VERTEX
  5
44B
  8
0
  6
CONTINUOUS
 62
     7
 10
308.5261414867623
 20
351.0373125879587
 30
0.0
  0
VERTEX
  5
44C
  8
0
  6
CONTINUOUS
 62
     7
 10
308.5261414867623
 20
265.87604094741801
 30
0.0
 42
-0.3763130389602255
  0
VERTEX
  5
44D
  8
0
  6
CONTINUOUS
 62
     7
 10
304.1798199490965
 20
260.91895465931418
 30
0.0
 42
0.3393364330166096
  0
VERTEX
  5
44E
  8
0
  6
CONTINUOUS
 62
     7
 10
296.17097037760431
 20
252.9101050868577
 30
0.0
 42
-0.3763130389602255
  0
VERTEX
  5
44F
  8
0
  6
CONTINUOUS
 62
     7
 10
291.21388408696163
 20
248.5637835501575
 30
0.0
  0
VERTEX
  5
450
  8
0
  6
CONTINUOUS
 62
     7
 10
151.05261244918159
 20
248.5637835501575
 30
0.0
 42
-0.3763130389602254
  0
VERTEX
  5
451
  8
0
  6
CONTINUOUS
 62
     7
 10
146.09552616107791
 20
252.9101050878233
 30
0.0
 42
0.3393364330166096
  0
VERTEX
  5
452
  8
0
  6
CONTINUOUS
 62
     7
 10
138.08667658608201
 20
260.91895465931651
 30
0.0
 42
-0.3566199626442867
  0
VERTEX
  5
453
  8
0
  6
CONTINUOUS
 62
     7
 10
133.74035504938229
 20
265.87604094741801
 30
0.0
  0
SEQEND
  5
454
  8
0
  6
CONTINUOUS
 62
     7
  0
CIRCLE
  5
36C
  8
02___PRT_ALL_AXES
  6
CONTINUOUS
 62
     7
 10
398.80624137119321
 20
312.56378355091761
 30
0.0
 40
2.5000000012599992
  0
CIRCLE
  5
36D
  8
02___PRT_ALL_AXES
  6
CONTINUOUS
 62
     7
 10
378.8062413712737
 20
312.56378355091761
 30
0.0
 40
2.5000000012599992
  0
CIRCLE
  5
36E
  8
02___PRT_ALL_AXES
  6
CONTINUOUS
 62
     7
 10
358.80624137135328
 20
312.56378355091761
 30
0.0
 40
2.5000000012599992
  0
CIRCLE
  5
36F
  8
02___PRT_ALL_AXES
  6
CONTINUOUS
 62
     7
 10
338.80624137143383
 20
312.56378355091761
 30
0.0
 40
2.5000000012599992
  0
CIRCLE
  5
370
  8
02___PRT_ALL_AXES
  6
CONTINUOUS
 62
     7
 10
338.80624137143383
 20
292.56378355099758
 30
0.0
 40
2.5000000012599992
  0
CIRCLE
  5
371
  8
02___PRT_ALL_AXES
  6
CONTINUOUS
 62
     7
 10
358.80624137135328
 20
292.56378355099758
 30
0.0
 40
2.5000000012599992
  0
CIRCLE
  5
372
  8
02___PRT_ALL_AXES
  6
CONTINUOUS
 62
     7
 10
378.8062413712737
 20
292.56378355099758
 30
0.0
 40
2.5000000012599992
  0
CIRCLE
  5
373
  8
02___PRT_ALL_AXES
  6
CONTINUOUS
 62
     7
 10
398.80624137119321
 20
292.56378355099758
 30
0.0
 40
2.5000000012599992
  0
CIRCLE
  5
374
  8
02___PRT_ALL_AXES
  6
CONTINUOUS
 62
     7
 10
338.80624137143383
 20
272.56378355107768
 30
0.0
 40
2.5000000012599992
  0
CIRCLE
  5
375
  8
02___PRT_ALL_AXES
  6
CONTINUOUS
 62
     7
 10
358.80624137135328
 20
272.56378355107768
 30
0.0
 40
2.5000000012599992
  0
CIRCLE
  5
376
  8
02___PRT_ALL_AXES
  6
CONTINUOUS
 62
     7
 10
378.8062413712737
 20
272.56378355107768
 30
0.0
 40
2.5000000012599992
  0
CIRCLE
  5
377
  8
02___PRT_ALL_AXES
  6
CONTINUOUS
 62
     7
 10
398.80624137119321
 20
272.56378355107768
 30
0.0
 40
2.5000000012599992
  0
CIRCLE
  5
378
  8
02___PRT_ALL_AXES
  6
CONTINUOUS
 62
     7
 10
332.80624136993362
 20
259.56378355163753
 30
0.0
 40
1.4999999997399991
  0
CIRCLE
  5
37A
  8
02___PRT_ALL_AXES
  6
CONTINUOUS
 62
     7
 10
398.80624137119321
 20
332.56378355083763
 30
0.0
 40
2.5000000012599992
  0
CIRCLE
  5
37B
  8
02___PRT_ALL_AXES
  6
CONTINUOUS
 62
     7
 10
378.8062413712737
 20
332.56378355083763
 30
0.0
 40
2.5000000012599992
  0
CIRCLE
  5
37C
  8
02___PRT_ALL_AXES
  6
CONTINUOUS
 62
     7
 10
358.80624137135328
 20
332.56378355083763
 30
0.0
 40
2.5000000012599992
  0
CIRCLE
  5
37D
  8
02___PRT_ALL_AXES
  6
CONTINUOUS
 62
     7
 10
338.80624137143383
 20
332.56378355083763
 30
0.0
 40
2.5000000012599992
  0
CIRCLE
  5
37E
  8
02___PRT_ALL_AXES
  6
CONTINUOUS
 62
     7
 10
338.80624137143383
 20
352.56378355075748
 30
0.0
 40
2.5000000012599992
  0
CIRCLE
  5
37F
  8
02___PRT_ALL_AXES
  6
CONTINUOUS
 62
     7
 10
358.80624137135328
 20
352.56378355075748
 30
0.0
 40
2.5000000012599992
  0
CIRCLE
  5
380
  8
02___PRT_ALL_AXES
  6
CONTINUOUS
 62
     7
 10
378.8062413712737
 20
352.56378355075748
 30
0.0
 40
2.5000000012599992
  0
CIRCLE
  5
381
  8
02___PRT_ALL_AXES
  6
CONTINUOUS
 62
     7
 10
398.80624137119321
 20
352.56378355075748
 30
0.0
 40
2.5000000012599992
  0
CIRCLE
  5
382
  8
02___PRT_ALL_AXES
  6
CONTINUOUS
 62
     7
 10
338.80624137143383
 20
372.5637835506775
 30
0.0
 40
2.5000000012599992
  0
CIRCLE
  5
383
  8
02___PRT_ALL_AXES
  6
CONTINUOUS
 62
     7
 10
358.80624137135328
 20
372.5637835506775
 30
0.0
 40
2.5000000012599992
  0
CIRCLE
  5
384
  8
02___PRT_ALL_AXES
  6
CONTINUOUS
 62
     7
 10
378.8062413712737
 20
372.5637835506775
 30
0.0
 40
2.5000000012599992
  0
CIRCLE
  5
385
  8
02___PRT_ALL_AXES
  6
CONTINUOUS
 62
     7
 10
398.80624137119321
 20
372.5637835506775
 30
0.0
 40
2.5000000012599992
  0
CIRCLE
  5
386
  8
02___PRT_ALL_AXES
  6
CONTINUOUS
 62
     7
 10
332.80624136993362
 20
385.56378355011748
 30
0.0
 40
1.4999999997399991
  0
CIRCLE
  5
388
  8
02___PRT_ALL_AXES
  6
CONTINUOUS
 62
     7
 10
418.80624137111352
 20
312.56378355091761
 30
0.0
 40
2.5000000012599992
  0
CIRCLE
  5
389
  8
02___PRT_ALL_AXES
  6
CONTINUOUS
 62
     7
 10
438.80624137103348
 20
312.56378355091761
 30
0.0
 40
2.5000000012599992
  0
CIRCLE
  5
38A
  8
02___PRT_ALL_AXES
  6
CONTINUOUS
 62
     7
 10
458.80624137095401
 20
312.56378355091761
 30
0.0
 40
2.5000000012599992
  0
CIRCLE
  5
38B
  8
02___PRT_ALL_AXES
  6
CONTINUOUS
 62
     7
 10
478.80624137087352
 20
312.56378355091761
 30
0.0
 40
2.5000000012599992
  0
CIRCLE
  5
38C
  8
02___PRT_ALL_AXES
  6
CONTINUOUS
 62
     7
 10
478.80624137087352
 20
292.56378355099758
 30
0.0
 40
2.5000000012599992
  0
CIRCLE
  5
38D
  8
02___PRT_ALL_AXES
  6
CONTINUOUS
 62
     7
 10
458.80624137095401
 20
292.56378355099758
 30
0.0
 40
2.5000000012599992
  0
CIRCLE
  5
38E
  8
02___PRT_ALL_AXES
  6
CONTINUOUS
 62
     7
 10
438.80624137103348
 20
292.56378355099758
 30
0.0
 40
2.5000000012599992
  0
CIRCLE
  5
38F
  8
02___PRT_ALL_AXES
  6
CONTINUOUS
 62
     7
 10
418.80624137111352
 20
292.56378355099758
 30
0.0
 40
2.5000000012599992
  0
CIRCLE
  5
390
  8
02___PRT_ALL_AXES
  6
CONTINUOUS
 62
     7
 10
478.80624137087352
 20
272.56378355107768
 30
0.0
 40
2.5000000012599992
  0
CIRCLE
  5
391
  8
02___PRT_ALL_AXES
  6
CONTINUOUS
 62
     7
 10
458.80624137095401
 20
272.56378355107768
 30
0.0
 40
2.5000000012599992
  0
CIRCLE
  5
392
  8
02___PRT_ALL_AXES
  6
CONTINUOUS
 62
     7
 10
438.80624137103348
 20
272.56378355107768
 30
0.0
 40
2.5000000012599992
  0
CIRCLE
  5
393
  8
02___PRT_ALL_AXES
  6
CONTINUOUS
 62
     7
 10
418.80624137111352
 20
272.56378355107768
 30
0.0
 40
2.5000000012599992
  0
CIRCLE
  5
394
  8
02___PRT_ALL_AXES
  6
CONTINUOUS
 62
     7
 10
484.806241369833
 20
259.56378355163753
 30
0.0
 40
1.4999999997399991
  0
CIRCLE
  5
396
  8
02___PRT_ALL_AXES
  6
CONTINUOUS
 62
     7
 10
418.80624137111352
 20
332.56378355083763
 30
0.0
 40
2.5000000012599992
  0
CIRCLE
  5
397
  8
02___PRT_ALL_AXES
  6
CONTINUOUS
 62
     7
 10
438.80624137103348
 20
332.56378355083763
 30
0.0
 40
2.5000000012599992
  0
CIRCLE
  5
398
  8
02___PRT_ALL_AXES
  6
CONTINUOUS
 62
     7
 10
458.80624137095401
 20
332.56378355083763
 30
0.0
 40
2.5000000012599992
  0
CIRCLE
  5
399
  8
02___PRT_ALL_AXES
  6
CONTINUOUS
 62
     7
 10
478.80624137087352
 20
332.56378355083763
 30
0.0
 40
2.5000000012599992
  0
CIRCLE
  5
39A
  8
02___PRT_ALL_AXES
  6
CONTINUOUS
 62
     7
 10
478.80624137087352
 20
352.56378355075748
 30
0.0
 40
2.5000000012599992
  0
CIRCLE
  5
39B
  8
02___PRT_ALL_AXES
  6
CONTINUOUS
 62
     7
 10
458.80624137095401
 20
352.56378355075748
 30
0.0
 40
2.5000000012599992
  0
CIRCLE
  5
39C
  8
02___PRT_ALL_AXES
  6
CONTINUOUS
 62
     7
 10
438.80624137103348
 20
352.56378355075748
 30
0.0
 40
2.5000000012599992
  0
CIRCLE
  5
39D
  8
02___PRT_ALL_AXES
  6
CONTINUOUS
 62
     7
 10
418.80624137111352
 20
352.56378355075748
 30
0.0
 40
2.5000000012599992
  0
CIRCLE
  5
39E
  8
02___PRT_ALL_AXES
  6
CONTINUOUS
 62
     7
 10
478.80624137087352
 20
372.5637835506775
 30
0.0
 40
2.5000000012599992
  0
CIRCLE
  5
39F
  8
02___PRT_ALL_AXES
  6
CONTINUOUS
 62
     7
 10
458.80624137095401
 20
372.5637835506775
 30
0.0
 40
2.5000000012599992
  0
CIRCLE
  5
3A0
  8
02___PRT_ALL_AXES
  6
CONTINUOUS
 62
     7
 10
438.80624137103348
 20
372.5637835506775
 30
0.0
 40
2.5000000012599992
  0
CIRCLE
  5
3A1
  8
02___PRT_ALL_AXES
  6
CONTINUOUS
 62
     7
 10
418.80624137111352
 20
372.5637835506775
 30
0.0
 40
2.5000000012599992
  0
CIRCLE
  5
3A2
  8
02___PRT_ALL_AXES
  6
CONTINUOUS
 62
     7
 10
484.806241369833
 20
385.56378355011748
 30
0.0
 40
1.4999999997399991
  0
POLYLINE
  5
3E1
  8
02___PRT_ALL_AXES
  6
CONTINUOUS
 62
     7
 66
     1
 10
0.0
 20
0.0
 30
0.0
 70
     1
  0
VERTEX
  5
45D
  8
02___PRT_ALL_AXES
  6
CONTINUOUS
 62
     7
 10
495.80624137131372
 20
391.56378355161769
 30
0.0
  0
VERTEX
  5
45E
  8
02___PRT_ALL_AXES
  6
CONTINUOUS
 62
     7
 10
495.80624137131332
 20
253.56378355013749
 30
0.0
 42
-0.4142135623730951
  0
VERTEX
  5
45F
  8
02___PRT_ALL_AXES
  6
CONTINUOUS
 62
     7
 10
490.80624137133327
 20
248.5637835501575
 30
0.0
  0
VERTEX
  5
460
  8
02___PRT_ALL_AXES
  6
CONTINUOUS
 62
     7
 10
326.80624137097362
 20
248.5637835501575
 30
0.0
 42
-0.4142135623730951
  0
VERTEX
  5
461
  8
02___PRT_ALL_AXES
  6
CONTINUOUS
 62
     7
 10
321.80624137099358
 20
253.56378355013749
 30
0.0
  0
VERTEX
  5
462
  8
02___PRT_ALL_AXES
  6
CONTINUOUS
 62
     7
 10
321.80624137099358
 20
391.56378355161769
 30
0.0
 42
-0.4142135623730951
  0
VERTEX
  5
463
  8
02___PRT_ALL_AXES
  6
CONTINUOUS
 62
     7
 10
326.80624137097362
 20
396.56378355159751
 30
0.0
  0
VERTEX
  5
464
  8
02___PRT_ALL_AXES
  6
CONTINUOUS
 62
     7
 10
490.80624137133327
 20
396.56378355159751
 30
0.0
 42
-0.4142135623730951
  0
SEQEND
  5
465
  8
02___PRT_ALL_AXES
  6
CONTINUOUS
 62
     7
  0
ENDSEC
  0
EOF
